{
  "accessors": [
    {
      "bufferView": 2,
      "componentType": 5126,
      "count": 48716,
      "max": [
        53.039207458496094,
        1.3047473430633545,
        43.58495330810547
      ],
      "min": [
        -8.363760948181152,
        -3.1507296562194824,
        -11.088123321533203
      ],
      "type": "VEC3"
    },
    {
      "bufferView": 2,
      "byteOffset": 584592,
      "componentType": 5126,
      "count": 48716,
      "max": [
        0.95228111743927,
        0.999989926815033,
        1.0
      ],
      "min": [
        -0.9522812366485596,
        -0.999989926815033,
        -1.0
      ],
      "type": "VEC3"
    },
    {
      "bufferView": 1,
      "componentType": 5126,
      "count": 48716,
      "max": [
        1.0,
        1.1887719631195068
      ],
      "min": [
        -0.02973400056362152,
        0.0035649999044835567
      ],
      "type": "VEC2"
    },
    {
      "bufferView": 0,
      "componentType": 5125,
      "count": 80439,
      "type": "SCALAR"
    },
    {
      "bufferView": 2,
      "byteOffset": 1169184,
      "componentType": 5126,
      "count": 890,
      "max": [
        26.228065490722656,
        1.241058111190796,
        6.795991897583008
      ],
      "min": [
        -92.73648071289063,
        -64.36101531982422,
        -4.340566158294678
      ],
      "type": "VEC3"
    },
    {
      "bufferView": 2,
      "byteOffset": 1179864,
      "componentType": 5126,
      "count": 890,
      "max": [
        1.0,
        1.0,
        1.0
      ],
      "min": [
        -1.0,
        -1.0,
        -1.0
      ],
      "type": "VEC3"
    },
    {
      "bufferView": 1,
      "byteOffset": 389728,
      "componentType": 5126,
      "count": 890,
      "max": [
        1.2626570463180542,
        1.0006840229034424
      ],
      "min": [
        1.2999999853491317e-05,
        1.2999999853491317e-05
      ],
      "type": "VEC2"
    },
    {
      "bufferView": 0,
      "byteOffset": 321756,
      "componentType": 5125,
      "count": 960,
      "type": "SCALAR"
    },
    {
      "bufferView": 2,
      "byteOffset": 1190544,
      "componentType": 5126,
      "count": 3752,
      "max": [
        51.92324447631836,
        0.8791545629501343,
        43.83561706542969
      ],
      "min": [
        -7.240561485290527,
        -2.7264277935028076,
        -15.566381454467773
      ],
      "type": "VEC3"
    },
    {
      "bufferView": 2,
      "byteOffset": 1235568,
      "componentType": 5126,
      "count": 3752,
      "max": [
        0.9439886212348938,
        0.9999655485153198,
        1.0
      ],
      "min": [
        -0.9439886212348938,
        -0.9999655485153198,
        -1.0
      ],
      "type": "VEC3"
    },
    {
      "bufferView": 1,
      "byteOffset": 396848,
      "componentType": 5126,
      "count": 3752,
      "max": [
        1.2038624286651611,
        0.9595829248428345
      ],
      "min": [
        -0.002020105719566345,
        0.009144769981503487
      ],
      "type": "VEC2"
    },
    {
      "bufferView": 0,
      "byteOffset": 325596,
      "componentType": 5125,
      "count": 5628,
      "type": "SCALAR"
    },
    {
      "bufferView": 2,
      "byteOffset": 1280592,
      "componentType": 5126,
      "count": 1200,
      "max": [
        76.58293914794922,
        26.203563690185547,
        6.906635284423828
      ],
      "min": [
        -13.439820289611816,
        -0.519586980342865,
        -1.0406759977340698
      ],
      "type": "VEC3"
    },
    {
      "bufferView": 2,
      "byteOffset": 1294992,
      "componentType": 5126,
      "count": 1200,
      "max": [
        1.0,
        1.0,
        1.0
      ],
      "min": [
        -1.0,
        -1.0,
        -1.0
      ],
      "type": "VEC3"
    },
    {
      "bufferView": 1,
      "byteOffset": 426864,
      "componentType": 5126,
      "count": 1200,
      "max": [
        0.960739016532898,
        1.002534031867981
      ],
      "min": [
        0.0006639999919570982,
        0.03866399824619293
      ],
      "type": "VEC2"
    },
    {
      "bufferView": 0,
      "byteOffset": 348108,
      "componentType": 5125,
      "count": 1800,
      "type": "SCALAR"
    },
    {
      "bufferView": 2,
      "byteOffset": 1309392,
      "componentType": 5126,
      "count": 384,
      "max": [
        75.28372955322266,
        22.674131393432617,
        6.839118003845215
      ],
      "min": [
        -12.30879020690918,
        -0.519586980342865,
        -1.0406759977340698
      ],
      "type": "VEC3"
    },
    {
      "bufferView": 2,
      "byteOffset": 1314000,
      "componentType": 5126,
      "count": 384,
      "max": [
        1.0,
        1.0,
        1.0
      ],
      "min": [
        -1.0,
        -1.0,
        -1.0
      ],
      "type": "VEC3"
    },
    {
      "bufferView": 1,
      "byteOffset": 436464,
      "componentType": 5126,
      "count": 384,
      "max": [
        0.9854369759559631,
        0.9854369759559631
      ],
      "min": [
        0.014562999829649925,
        0.014562999829649925
      ],
      "type": "VEC2"
    },
    {
      "bufferView": 0,
      "byteOffset": 355308,
      "componentType": 5125,
      "count": 576,
      "type": "SCALAR"
    },
    {
      "bufferView": 2,
      "byteOffset": 1318608,
      "componentType": 5126,
      "count": 1032,
      "max": [
        32.14097595214844,
        42.05293273925781,
        6.728245258331299
      ],
      "min": [
        -103.9127197265625,
        -9.726804733276367,
        -5.13815975189209
      ],
      "type": "VEC3"
    },
    {
      "bufferView": 2,
      "byteOffset": 1330992,
      "componentType": 5126,
      "count": 1032,
      "max": [
        1.0,
        1.0,
        1.0
      ],
      "min": [
        -1.0,
        -1.0,
        -1.0
      ],
      "type": "VEC3"
    },
    {
      "bufferView": 1,
      "byteOffset": 439536,
      "componentType": 5126,
      "count": 1032,
      "max": [
        1.0106240510940552,
        1.0145889520645142
      ],
      "min": [
        -0.0004769999941345304,
        0.014562999829649925
      ],
      "type": "VEC2"
    },
    {
      "bufferView": 0,
      "byteOffset": 357612,
      "componentType": 5125,
      "count": 1548,
      "type": "SCALAR"
    }
  ],
  "asset": {
    "extras": {
      "author": "novusod (https://sketchfab.com/novusod)",
      "license": "CC-BY-4.0 (http://creativecommons.org/licenses/by/4.0/)",
      "source": "https://sketchfab.com/3d-models/huge-warehouse-47de3d07f2874696be50c31271b8c41f",
      "title": "Huge Warehouse"
    },
    "generator": "Sketchfab-13.29.0",
    "version": "2.0"
  },
  "bufferViews": [
    {
      "buffer": 0,
      "byteLength": 363804,
      "name": "floatBufferViews",
      "target": 34963
    },
    {
      "buffer": 0,
      "byteLength": 447792,
      "byteOffset": 363804,
      "byteStride": 8,
      "name": "floatBufferViews",
      "target": 34962
    },
    {
      "buffer": 0,
      "byteLength": 1343376,
      "byteOffset": 811596,
      "byteStride": 12,
      "name": "floatBufferViews",
      "target": 34962
    }
  ],
  "buffers": [
    {
      "byteLength": 2154972,
      "uri": "scene.bin"
    }
  ],
  "images": [
    {
      "uri": "textures/Material.003_baseColor.png"
    },
    {
      "uri": "textures/Material_baseColor.png"
    },
    {
      "uri": "textures/Material.005_baseColor.png"
    },
    {
      "uri": "textures/PalletMaterial_baseColor.png"
    }
  ],
  "materials": [
    {
      "doubleSided": true,
      "name": "Material.003",
      "pbrMetallicRoughness": {
        "baseColorTexture": {
          "index": 0
        },
        "metallicFactor": 0.0,
        "roughnessFactor": 0.5
      }
    },
    {
      "doubleSided": true,
      "name": "Material.001",
      "pbrMetallicRoughness": {
        "baseColorTexture": {
          "index": 0
        },
        "metallicFactor": 0.0,
        "roughnessFactor": 0.5
      }
    },
    {
      "doubleSided": true,
      "name": "Material",
      "pbrMetallicRoughness": {
        "baseColorTexture": {
          "index": 1
        },
        "metallicFactor": 0.0,
        "roughnessFactor": 0.4
      }
    },
    {
      "doubleSided": true,
      "name": "Material.005",
      "pbrMetallicRoughness": {
        "baseColorTexture": {
          "index": 2
        },
        "metallicFactor": 0.0,
        "roughnessFactor": 0.4
      }
    },
    {
      "doubleSided": true,
      "name": "PalletMaterial",
      "pbrMetallicRoughness": {
        "baseColorTexture": {
          "index": 3
        },
        "metallicFactor": 0.0,
        "roughnessFactor": 0.4
      }
    }
  ],
  "meshes": [
    {
      "name": "Object_0",
      "primitives": [
        {
          "attributes": {
            "NORMAL": 1,
            "POSITION": 0,
            "TEXCOORD_0": 2
          },
          "indices": 3,
          "material": 0,
          "mode": 4
        }
      ]
    },
    {
      "name": "Object_1",
      "primitives": [
        {
          "attributes": {
            "NORMAL": 5,
            "POSITION": 4,
            "TEXCOORD_0": 6
          },
          "indices": 7,
          "material": 1,
          "mode": 4
        }
      ]
    },
    {
      "name": "Object_2",
      "primitives": [
        {
          "attributes": {
            "NORMAL": 9,
            "POSITION": 8,
            "TEXCOORD_0": 10
          },
          "indices": 11,
          "material": 0,
          "mode": 4
        }
      ]
    },
    {
      "name": "Object_3",
      "primitives": [
        {
          "attributes": {
            "NORMAL": 13,
            "POSITION": 12,
            "TEXCOORD_0": 14
          },
          "indices": 15,
          "material": 2,
          "mode": 4
        }
      ]
    },
    {
      "name": "Object_4",
      "primitives": [
        {
          "attributes": {
            "NORMAL": 17,
            "POSITION": 16,
            "TEXCOORD_0": 18
          },
          "indices": 19,
          "material": 3,
          "mode": 4
        }
      ]
    },
    {
      "name": "Object_5",
      "primitives": [
        {
          "attributes": {
            "NORMAL": 21,
            "POSITION": 20,
            "TEXCOORD_0": 22
          },
          "indices": 23,
          "material": 4,
          "mode": 4
        }
      ]
    }
  ],
  "nodes": [
    {
      "children": [
        1
      ],
      "matrix": [
        1.0,
        0.0,
        0.0,
        0.0,
        0.0,
        2.220446049250313e-16,
        -1.0,
        0.0,
        0.0,
        1.0,
        2.220446049250313e-16,
        0.0,
        0.0,
        0.0,
        0.0,
        1.0
      ],
      "name": "Sketchfab_model"
    },
    {
      "children": [
        2
      ],
      "name": "root"
    },
    {
      "children": [
        3,
        5,
        7,
        9,
        11,
        13
      ],
      "matrix": [
        1.0,
        0.0,
        0.0,
        0.0,
        0.0,
        2.220446049250313e-16,
        1.0,
        0.0,
        0.0,
        -1.0,
        2.220446049250313e-16,
        0.0,
        0.0,
        0.0,
        0.0,
        1.0
      ],
      "name": "GLTF_SceneRootNode"
    },
    {
      "children": [
        4
      ],
      "matrix": [
        2.759919185214786,
        5.27416776602497e-09,
        -0.14885639701605827,
        0.0,
        0.9657993678094314,
        -3.0234082709146663e-06,
        17.90670913523451,
        0.0,
        -7.174656594527429e-09,
        -0.9999999999999858,
        -1.6845524042352622e-07,
        0.0,
        -53.51969528198242,
        42.835609436035156,
        19.69176483154297,
        1.0
      ],
      "name": "Roof_0"
    },
    {
      "mesh": 0,
      "name": "Object_4"
    },
    {
      "children": [
        6
      ],
      "matrix": [
        -0.9999999999999734,
        1.6292067808180787e-07,
        1.6292065061543718e-07,
        0.0,
        -1.6292067808180787e-07,
        -1.685873836088092e-07,
        -0.9999999999999725,
        0.0,
        -1.6292065061543718e-07,
        -0.9999999999999725,
        1.685874103651841e-07,
        0.0,
        -22.3975830078125,
        6.652585506439209,
        -32.00916290283203,
        1.0
      ],
      "name": "Loading.001_1"
    },
    {
      "mesh": 1,
      "name": "Object_6"
    },
    {
      "children": [
        8
      ],
      "matrix": [
        2.759919185214786,
        5.27416776602497e-09,
        -0.14885639701605827,
        0.0,
        0.9657993678094314,
        -3.0234082709146663e-06,
        17.90670913523451,
        0.0,
        -7.174656594527429e-09,
        -0.9999999999999858,
        -1.6845524042352622e-07,
        0.0,
        -53.51969528198242,
        42.835609436035156,
        19.69176483154297,
        1.0
      ],
      "name": "Floor_2"
    }
  ],
  "samplers": [
    {
      "magFilter": 9729,
      "minFilter": 9987,
      "wrapS": 10497,
      "wrapT": 10497
    }
  ],
  "scene": 0,
  "scenes": [
    {
      "name": "Sketchfab_Scene",
      "nodes": [
        0
      ]
    }
  ],
  "textures": [
    {
      "sampler": 0,
      "source": 0
    },
    {
      "sampler": 0,
      "source": 1
    },
    {
      "sampler": 0,
      "source": 2
    },
    {
      "sampler": 0,
      "source": 3
    }
  ]
}
